P3
60 40
255
191 216 255
191 216 255
191 216 255
191 216 255
191 216 255
191 216 255
191 216 255
191 216 255
191 216 255
191 216 255
191 216 255
191 216 255
191 216 255
191 216 255
191 216 255
191 216 255
191 216 255
191 216 255
191 216 255
191 216 255
191 216 255
191 216 255
191 216 255
191 216 255
191 216 255
191 216 255
191 216 255
191 216 255
191 216 255
191 216 255
191 216 255
191 216 255
191 216 255
191 216 255
191 216 255
191 216 255
191 216 255
191 216 255
191 216 255
191 216 255
191 216 255
191 216 255
191 216 255
191 216 255
191 216 255
191 216 255
191 216 255
191 216 255
191 216 255
191 216 255
191 216 255
191 216 255
191 216 255
191 216 255
191 216 255
191 216 255
191 216 255
191 216 255
191 216 255
191 216 255
191 216 255
191 216 255
191 216 255
191 216 255
191 216 255
191 216 255
191 216 255
191 216 255
191 216 255
191 216 255
191 216 255
191 216 255
191 216 255
191 216 255
191 216 255
191 216 255
191 216 255
191 216 255
191 216 255
191 216 255
191 216 255
191 216 255
191 216 255
191 216 255
191 216 255
191 216 255
191 216 255
191 216 255
149 169 199
137 155 183
113 128 151
149 169 199
191 216 255
191 216 255
191 216 255
191 216 255
191 216 255
191 216 255
191 216 255
191 216 255
191 216 255
191 216 255
191 216 255
191 216 255
191 216 255
191 216 255
191 216 255
191 216 255
191 216 255
191 216 255
191 216 255
191 216 255
191 216 255
191 216 255
191 216 255
191 216 255
191 216 255
191 216 255
191 216 255
191 216 255
191 216 255
191 216 255
191 216 255
191 216 255
191 216 255
191 216 255
191 216 255
191 216 255
191 216 255
191 216 255
191 216 255
191 216 255
191 216 255
191 216 255
191 216 255
191 216 255
191 216 255
191 216 255
191 216 255
191 216 255
191 216 255
191 216 255
191 216 255
191 216 255
191 216 255
191 216 255
191 216 255
191 216 255
96 109 128
91 104 122
91 103 121
96 109 128
191 216 255
191 216 255
191 216 255
191 216 255
191 216 255
191 216 255
191 216 255
191 216 255
191 216 255
191 216 255
191 216 255
191 216 255
191 216 255
191 216 255
191 216 255
191 216 255
191 216 255
191 216 255
191 216 255
191 216 255
191 216 255
191 216 255
191 216 255
191 216 255
191 216 255
191 216 255
191 216 255
191 216 255
191 216 255
191 216 255
191 216 255
191 216 255
191 216 255
191 216 255
191 216 255
191 216 255
191 216 255
191 216 255
191 216 255
191 216 255
191 216 255
191 216 255
191 216 255
191 216 255
191 216 255
191 216 255
191 216 255
191 216 255
191 216 255
191 216 255
191 216 255
176 199 234
121 137 161
116 131 155
67 76 90
75 86 101
76 86 101
74 84 99
75 85 101
69 79 93
91 104 122
116 132 155
122 139 163
158 179 211
177 200 236
191 216 255
191 216 255
191 216 255
191 216 255
191 216 255
191 216 255
191 216 255
191 216 255
191 216 255
191 216 255
191 216 255
191 216 255
191 216 255
191 216 255
191 216 255
191 216 255
191 216 255
191 216 255
191 216 255
191 216 255
191 216 255
191 216 255
191 216 255
191 216 255
191 216 255
191 216 255
191 216 255
191 216 255
191 216 255
191 216 255
191 216 255
191 216 255
191 216 255
191 216 255
191 216 255
191 216 255
191 216 255
191 216 255
191 216 255
191 216 255
191 216 255
191 216 255
191 216 255
191 216 255
179 203 239
122 139 163
92 104 123
84 95 112
95 108 127
94 107 126
92 104 123
88 100 118
90 103 121
84 96 113
87 99 117
94 107 126
94 107 126
95 108 127
90 102 120
60 68 81
129 147 173
167 189 223
191 216 255
191 216 255
191 216 255
191 216 255
191 216 255
191 216 255
191 216 255
191 216 255
191 216 255
191 216 255
191 216 255
191 216 255
191 216 255
191 216 255
191 216 255
191 216 255
191 216 255
191 216 255
191 216 255
191 216 255
191 216 255
191 216 255
191 216 255
191 216 255
191 216 255
191 216 255
191 216 255
191 216 255
191 216 255
191 216 255
191 216 255
191 216 255
191 216 255
191 216 255
191 216 255
191 216 255
191 216 255
191 216 255
191 216 255
191 216 255
191 216 255
185 209 246
113 128 151
157 178 209
95 108 127
95 108 127
95 107 127
95 108 127
93 105 124
91 104 122
90 102 120
90 102 120
93 106 125
94 107 126
95 108 127
95 108 127
95 108 127
95 108 127
122 138 163
122 138 163
191 216 255
191 216 255
191 216 255
191 216 255
191 216 255
191 216 255
185 209 247
132 149 176
120 136 161
105 120 141
179 203 239
191 216 255
191 216 255
191 216 255
191 216 255
191 216 255
191 216 255
191 216 255
191 216 255
191 216 255
191 216 255
191 216 255
191 216 255
191 216 255
191 216 255
191 216 255
191 216 255
191 216 255
191 216 255
191 216 255
191 216 255
191 216 255
191 216 255
191 216 255
191 216 255
191 216 255
191 216 255
185 209 247
179 203 239
185 209 246
161 182 215
160 182 214
95 107 126
93 105 124
91 103 121
94 106 125
95 108 127
95 108 127
95 108 127
95 108 127
95 107 127
95 108 127
95 107 127
95 108 127
95 108 127
95 108 127
92 104 123
93 106 124
92 105 123
94 107 126
172 195 230
191 216 255
191 216 255
191 216 255
191 216 255
185 209 246
124 141 166
95 108 127
95 108 127
143 162 191
191 216 255
191 216 255
191 216 255
191 216 255
191 216 255
191 216 255
191 216 255
191 216 255
191 216 255
191 216 255
191 216 255
191 216 255
191 216 255
191 216 255
191 216 255
191 216 255
191 216 255
191 216 255
191 216 255
191 216 255
191 216 255
191 216 255
191 216 255
191 216 255
143 162 191
125 142 167
101 115 135
95 107 127
95 108 127
92 104 123
95 108 127
70 80 94
80 91 107
95 108 127
95 108 127
92 105 123
90 102 120
93 106 125
92 104 123
91 103 121
91 104 122
93 105 124
90 102 120
93 105 124
92 104 123
94 106 125
95 107 126
95 108 127
95 108 127
94 107 126
104 118 139
191 216 255
191 216 255
191 216 255
191 216 255
154 174 205
94 107 126
95 108 127
173 196 231
191 216 255
191 216 255
191 216 255
191 216 255
191 216 255
191 216 255
191 216 255
191 216 255
191 216 255
191 216 255
191 216 255
191 216 255
191 216 255
191 216 255
191 216 255
191 216 255
191 216 255
191 216 255
191 216 255
191 216 255
191 216 255
191 216 255
191 216 255
191 216 255
173 196 231
95 108 127
98 111 130
145 164 193
166 188 222
152 173 203
178 202 238
143 162 191
71 81 95
94 107 126
95 108 127
95 108 127
95 108 127
95 108 127
95 108 127
95 108 127
95 108 127
95 108 127
95 108 127
95 108 127
95 108 127
95 108 127
95 108 127
95 108 127
95 108 127
95 108 127
94 107 126
91 103 122
146 165 195
191 216 255
191 216 255
191 216 255
111 125 148
95 107 126
125 142 167
191 216 255
191 216 255
191 216 255
191 216 255
191 216 255
191 216 255
191 216 255
191 216 255
191 216 255
191 216 255
191 216 255
191 216 255
191 216 255
191 216 255
191 216 255
191 216 255
191 216 255
191 216 255
191 216 255
191 216 255
191 216 255
191 216 255
191 216 255
191 216 255
191 216 255
155 176 207
95 108 127
144 163 192
191 216 255
191 216 255
191 216 255
191 216 255
119 135 159
83 94 111
94 107 126
95 108 127
95 108 127
95 108 127
95 108 127
95 108 127
95 108 127
95 108 127
95 108 127
95 108 127
95 108 127
95 108 127
95 108 127
95 108 127
95 108 127
95 108 127
95 108 127
94 106 125
91 103 121
103 117 138
191 216 255
191 216 255
169 192 226
92 105 123
95 108 127
173 196 231
191 216 255
191 216 255
191 216 255
191 216 255
191 216 255
191 216 255
191 216 255
191 216 255
191 216 255
191 216 255
191 216 255
191 216 255
191 216 255
191 216 255
191 216 255
191 216 255
191 216 255
191 216 255
191 216 255
191 216 255
191 216 255
191 216 255
191 216 255
191 216 255
191 216 255
143 162 191
95 108 127
131 148 174
191 216 255
191 216 255
191 216 255
184 209 246
80 91 107
93 105 124
95 108 127
95 108 127
95 108 127
95 108 127
95 108 127
95 108 127
95 108 127
95 108 127
95 108 127
95 108 127
95 108 127
95 108 127
95 108 127
95 108 127
95 108 127
95 108 127
95 108 127
94 107 126
91 104 122
76 86 101
184 209 246
184 209 246
124 140 165
95 108 127
101 115 135
179 203 239
191 216 255
191 216 255
191 216 255
191 216 255
191 216 255
191 216 255
191 216 255
191 216 255
191 216 255
191 216 255
191 216 255
191 216 255
191 216 255
191 216 255
191 216 255
191 216 255
191 216 255
191 216 255
191 216 255
191 216 255
191 216 255
191 216 255
191 216 255
191 216 255
191 216 255
191 216 255
95 108 127
97 110 130
191 216 255
191 216 255
191 216 255
157 178 210
81 92 109
93 106 125
95 107 127
95 108 127
95 108 127
95 108 127
95 108 127
95 108 127
95 108 127
95 108 127
95 108 127
95 108 127
95 108 127
95 108 127
95 108 127
95 108 127
95 108 127
95 108 127
95 108 127
95 108 127
89 101 119
61 69 81
106 120 141
109 123 145
94 106 125
95 108 127
113 128 151
191 216 255
191 216 255
191 216 255
191 216 255
191 216 255
191 216 255
191 216 255
191 216 255
191 216 255
191 216 255
191 216 255
191 216 255
191 216 255
191 216 255
191 216 255
191 216 255
191 216 255
191 216 255
191 216 255
191 216 255
191 216 255
191 216 255
191 216 255
191 216 255
191 216 255
191 216 255
191 216 255
125 142 167
93 106 125
135 153 180
191 216 255
191 216 255
123 139 164
90 103 121
94 107 126
95 107 127
95 108 127
95 108 127
95 108 127
95 108 127
95 108 127
95 108 127
95 108 127
95 108 127
95 108 127
95 108 127
95 108 127
95 108 127
95 108 127
95 108 127
95 108 127
95 108 127
95 108 127
77 87 102
44 50 59
65 74 87
93 106 125
95 107 127
95 108 127
161 182 215
191 216 255
191 216 255
191 216 255
191 216 255
191 216 255
191 216 255
191 216 255
191 216 255
191 216 255
191 216 255
191 216 255
191 216 255
191 216 255
191 216 255
191 216 255
191 216 255
191 216 255
191 216 255
191 216 255
191 216 255
191 216 255
191 216 255
191 216 255
191 216 255
191 216 255
191 216 255
191 216 255
191 216 255
155 176 207
94 107 126
150 170 200
191 216 255
100 113 133
90 102 120
95 108 127
95 108 127
95 108 127
95 108 127
95 108 127
95 108 127
95 108 127
95 108 127
95 108 127
95 108 127
95 108 127
95 108 127
95 108 127
95 108 127
95 108 127
95 108 127
95 108 127
95 108 127
95 108 127
77 87 103
46 53 62
62 70 82
95 107 127
95 108 127
101 115 135
191 216 255
191 216 255
191 216 255
191 216 255
191 216 255
191 216 255
191 216 255
191 216 255
191 216 255
191 216 255
191 216 255
191 216 255
191 216 255
191 216 255
191 216 255
191 216 255
191 216 255
191 216 255
191 216 255
191 216 255
191 216 255
191 216 255
191 216 255
191 216 255
191 216 255
191 216 255
191 216 255
191 216 255
191 216 255
191 216 255
149 169 199
94 107 126
99 112 132
73 83 98
93 106 124
95 107 127
95 108 127
95 108 127
95 108 127
95 108 127
95 108 127
95 108 127
95 108 127
95 108 127
95 108 127
95 108 127
95 108 127
95 108 127
95 108 127
95 108 127
95 108 127
95 108 127
95 108 127
95 108 127
68 77 91
46 52 62
53 60 71
95 108 127
101 115 135
179 203 239
191 216 255
191 216 255
191 216 255
191 216 255
191 216 255
191 216 255
191 216 255
191 216 255
191 216 255
191 216 255
191 216 255
191 216 255
191 216 255
191 216 255
191 216 255
191 216 255
191 216 255
191 216 255
191 216 255
191 216 255
191 216 255
191 216 255
191 216 255
191 216 255
191 216 255
191 216 255
191 216 255
191 216 255
191 216 255
191 216 255
191 216 255
161 182 215
100 113 133
74 84 98
94 107 126
95 107 127
95 108 127
95 108 127
95 108 127
95 108 127
95 108 127
95 108 127
95 108 127
95 108 127
95 108 127
95 108 127
95 108 127
95 108 127
95 108 127
95 108 127
95 108 127
95 108 127
95 108 127
95 108 127
86 98 115
47 53 63
59 67 79
137 155 183
173 196 231
191 216 255
191 216 255
191 216 255
191 216 255
191 216 255
191 216 255
191 216 255
191 216 255
191 216 255
191 216 255
191 216 255
191 216 255
191 216 255
191 216 255
191 216 255
191 216 255
191 216 255
191 216 255
191 216 255
191 216 255
191 216 255
191 216 255
191 216 255
191 216 255
191 216 255
191 216 255
191 216 255
191 216 255
191 216 255
191 216 255
191 216 255
191 216 255
191 216 255
185 209 247
113 128 151
95 108 127
95 108 127
95 108 127
95 108 127
95 108 127
95 108 127
95 108 127
95 108 127
95 108 127
95 108 127
95 108 127
95 108 127
95 108 127
95 108 127
95 108 127
95 108 127
95 108 127
95 108 127
95 108 127
95 108 127
92 104 123
77 88 103
155 175 206
191 216 255
191 216 255
191 216 255
191 216 255
191 216 255
191 216 255
191 216 255
191 216 255
191 216 255
191 216 255
191 216 255
191 216 255
191 216 255
191 216 255
191 216 255
191 216 255
191 216 255
191 216 255
191 216 255
191 216 255
191 216 255
191 216 255
191 216 255
191 216 255
191 216 255
191 216 255
191 216 255
191 216 255
191 216 255
191 216 255
191 216 255
191 216 255
191 216 255
191 216 255
191 216 255
191 216 255
191 216 255
155 176 207
95 108 127
95 108 127
95 108 127
95 108 127
95 108 127
95 108 127
95 108 127
95 108 127
95 108 127
95 108 127
95 108 127
95 108 127
95 108 127
95 108 127
95 108 127
95 108 127
95 108 127
95 108 127
95 108 127
95 108 127
143 162 191
191 216 255
191 216 255
191 216 255
191 216 255
191 216 255
191 216 255
191 216 255
191 216 255
191 216 255
191 216 255
191 216 255
191 216 255
191 216 255
191 216 255
191 216 255
191 216 255
191 216 255
191 216 255
191 216 255
191 216 255
191 216 255
191 216 255
191 216 255
191 216 255
191 216 255
191 216 255
191 216 255
191 216 255
191 216 255
191 216 255
191 216 255
191 216 255
191 216 255
191 216 255
191 216 255
191 216 255
191 216 255
191 216 255
191 216 255
149 169 199
95 108 127
95 108 127
95 108 127
95 108 127
95 108 127
95 108 127
95 108 127
95 108 127
95 108 127
95 108 127
95 108 127
95 108 127
95 108 127
95 108 127
95 108 127
95 108 127
95 108 127
95 108 127
161 182 215
191 216 255
191 216 255
191 216 255
191 216 255
191 216 255
191 216 255
191 216 255
191 216 255
191 216 255
191 216 255
191 216 255
191 216 255
191 216 255
191 216 255
191 216 255
191 216 255
191 216 255
191 216 255
191 216 255
191 216 255
191 216 255
191 216 255
191 216 255
191 216 255
191 216 255
191 216 255
191 216 255
191 216 255
191 216 255
191 216 255
191 216 255
191 216 255
191 216 255
191 216 255
191 216 255
191 216 255
191 216 255
191 216 255
191 216 255
191 216 255
191 216 255
143 162 191
143 162 191
107 121 143
101 114 135
95 108 127
101 115 135
95 108 127
95 108 127
95 108 127
95 108 127
101 115 135
95 108 127
95 108 127
107 121 143
107 121 143
113 128 151
119 135 159
173 196 231
191 216 255
191 216 255
191 216 255
191 216 255
191 216 255
191 216 255
191 216 255
191 216 255
191 216 255
191 216 255
191 216 255
191 216 255
191 216 255
191 216 255
191 216 255
191 216 255
191 216 255
191 216 255
191 216 255
191 216 255
191 216 255
191 216 255
191 216 255
191 216 255
191 216 255
191 216 255
191 216 255
191 216 255
191 216 255
191 216 255
191 216 255
191 216 255
191 216 255
191 216 255
191 216 255
191 216 255
191 216 255
191 216 255
191 216 255
191 216 255
191 216 255
191 216 255
191 216 255
191 216 255
191 216 255
191 216 255
191 216 255
191 216 255
191 216 255
191 216 255
191 216 255
191 216 255
191 216 255
191 216 255
191 216 255
191 216 255
191 216 255
191 216 255
191 216 255
191 216 255
191 216 255
191 216 255
191 216 255
191 216 255
191 216 255
191 216 255
191 216 255
191 216 255
191 216 255
191 216 255
191 216 255
191 216 255
191 216 255
191 216 255
191 216 255
191 216 255
191 216 255
191 216 255
191 216 255
191 216 255
191 216 255
191 216 255
191 216 255
191 216 255
191 216 255
191 216 255
191 216 255
191 216 255
191 216 255
191 216 255
191 216 255
191 216 255
191 216 255
191 216 255
191 216 255
191 216 255
191 216 255
191 216 255
191 216 255
191 216 255
191 216 255
191 216 255
191 216 255
191 216 255
191 216 255
191 216 255
191 216 255
191 216 255
191 216 255
191 216 255
191 216 255
191 216 255
191 216 255
191 216 255
191 216 255
191 216 255
191 216 255
191 216 255
191 216 255
191 216 255
191 216 255
191 216 255
191 216 255
191 216 255
191 216 255
191 216 255
191 216 255
191 216 255
191 216 255
191 216 255
191 216 255
191 216 255
191 216 255
191 216 255
191 216 255
191 216 255
191 216 255
191 216 255
191 216 255
191 216 255
191 216 255
191 216 255
191 216 255
191 216 255
191 216 255
191 216 255
191 216 255
191 216 255
191 216 255
191 216 255
191 216 255
191 216 255
191 216 255
191 216 255
191 216 255
191 216 255
191 216 255
191 216 255
191 216 255
191 216 255
191 216 255
191 216 255
191 216 255
191 216 255
191 216 255
191 216 255
191 216 255
191 216 255
191 216 255
191 216 255
191 216 255
191 216 255
191 216 255
191 216 255
191 216 255
191 216 255
191 216 255
191 216 255
191 216 255
191 216 255
191 216 255
191 216 255
191 216 255
191 216 255
191 216 255
191 216 255
191 216 255
191 216 255
191 216 255
191 216 255
191 216 255
191 216 255
191 216 255
191 216 255
191 216 255
191 216 255
191 216 255
191 216 255
191 216 255
191 216 255
191 216 255
191 216 255
191 216 255
191 216 255
191 216 255
191 216 255
191 216 255
191 216 255
191 216 255
191 216 255
191 216 255
191 216 255
191 216 255
191 216 255
191 216 255
191 216 255
191 216 255
191 216 255
191 216 255
191 216 255
191 216 255
191 216 255
191 216 255
191 216 255
191 216 255
191 216 255
191 216 255
191 216 255
191 216 255
191 216 255
191 216 255
191 216 255
191 216 255
191 216 255
191 216 255
191 216 255
191 216 255
191 216 255
191 216 255
191 216 255
191 216 255
191 216 255
191 216 255
191 216 255
191 216 255
191 216 255
191 216 255
191 216 255
191 216 255
191 216 255
191 216 255
191 216 255
191 216 255
191 216 255
191 216 255
191 216 255
191 216 255
191 216 255
191 216 255
191 216 255
191 216 255
191 216 255
191 216 255
191 216 255
191 216 255
191 216 255
191 216 255
191 216 255
191 216 255
191 216 255
191 216 255
191 216 255
191 216 255
191 216 255
191 216 255
191 216 255
191 216 255
191 216 255
191 216 255
191 216 255
191 216 255
191 216 255
191 216 255
191 216 255
191 216 255
191 216 255
191 216 255
191 216 255
191 216 255
191 216 255
191 216 255
191 216 255
191 216 255
191 216 255
191 216 255
191 216 255
191 216 255
191 216 255
191 216 255
191 216 255
191 216 255
191 216 255
191 216 255
191 216 255
191 216 255
191 216 255
191 216 255
191 216 255
191 216 255
191 216 255
191 216 255
191 216 255
191 216 255
191 216 255
191 216 255
191 216 255
191 216 255
191 216 255
191 216 255
191 216 255
191 216 255
191 216 255
191 216 255
191 216 255
191 216 255
191 216 255
191 216 255
191 216 255
191 216 255
191 216 255
191 216 255
191 216 255
191 216 255
191 216 255
191 216 255
191 216 255
191 216 255
191 216 255
191 216 255
191 216 255
191 216 255
191 216 255
191 216 255
191 216 255
191 216 255
191 216 255
191 216 255
191 216 255
191 216 255
191 216 255
191 216 255
191 216 255
191 216 255
191 216 255
191 216 255
191 216 255
191 216 255
191 216 255
191 216 255
191 216 255
191 216 255
191 216 255
191 216 255
191 216 255
191 216 255
191 216 255
191 216 255
191 216 255
191 216 255
191 216 255
191 216 255
191 216 255
191 216 255
191 216 255
191 216 255
191 216 255
191 216 255
191 216 255
191 216 255
191 216 255
191 216 255
191 216 255
191 216 255
191 216 255
191 216 255
191 216 255
191 216 255
191 216 255
191 216 255
191 216 255
191 216 255
191 216 255
191 216 255
191 216 255
191 216 255
191 216 255
191 216 255
191 216 255
191 216 255
191 216 255
191 216 255
191 216 255
191 216 255
191 216 255
191 216 255
191 216 255
191 216 255
191 216 255
191 216 255
191 216 255
191 216 255
191 216 255
191 216 255
191 216 255
191 216 255
191 216 255
191 216 255
191 216 255
191 216 255
191 216 255
191 216 255
191 216 255
191 216 255
191 216 255
191 216 255
191 216 255
191 216 255
191 216 255
191 216 255
191 216 255
191 216 255
191 216 255
191 216 255
191 216 255
191 216 255
191 216 255
191 216 255
191 216 255
191 216 255
191 216 255
191 216 255
191 216 255
191 216 255
191 216 255
191 216 255
191 216 255
191 216 255
191 216 255
191 216 255
191 216 255
191 216 255
191 216 255
191 216 255
191 216 255
191 216 255
191 216 255
191 216 255
191 216 255
191 216 255
191 216 255
191 216 255
191 216 255
191 216 255
191 216 255
191 216 255
191 216 255
191 216 255
191 216 255
191 216 255
191 216 255
191 216 255
191 216 255
191 216 255
191 216 255
191 216 255
191 216 255
191 216 255
191 216 255
191 216 255
191 216 255
191 216 255
191 216 255
191 216 255
191 216 255
191 216 255
191 216 255
191 216 255
191 216 255
191 216 255
191 216 255
191 216 255
191 216 255
191 216 255
191 216 255
191 216 255
191 216 255
191 216 255
191 216 255
191 216 255
191 216 255
191 216 255
191 216 255
191 216 255
191 216 255
191 216 255
191 216 255
191 216 255
191 216 255
191 216 255
191 216 255
191 216 255
191 216 255
191 216 255
191 216 255
191 216 255
191 216 255
191 216 255
191 216 255
191 216 255
191 216 255
191 216 255
191 216 255
191 216 255
191 216 255
191 216 255
191 216 255
191 216 255
191 216 255
191 216 255
191 216 255
191 216 255
191 216 255
191 216 255
191 216 255
191 216 255
191 216 255
191 216 255
191 216 255
191 216 255
191 216 255
191 216 255
191 216 255
191 216 255
191 216 255
191 216 255
191 216 255
191 216 255
191 216 255
191 216 255
191 216 255
191 216 255
191 216 255
191 216 255
191 216 255
191 216 255
191 216 255
191 216 255
191 216 255
191 216 255
191 216 255
191 216 255
191 216 255
191 216 255
191 216 255
191 216 255
191 216 255
191 216 255
191 216 255
191 216 255
191 216 255
191 216 255
191 216 255
191 216 255
191 216 255
191 216 255
191 216 255
191 216 255
191 216 255
191 216 255
191 216 255
191 216 255
191 216 255
191 216 255
191 216 255
191 216 255
191 216 255
191 216 255
191 216 255
191 216 255
191 216 255
191 216 255
191 216 255
191 216 255
191 216 255
191 216 255
191 216 255
191 216 255
191 216 255
191 216 255
191 216 255
191 216 255
191 216 255
191 216 255
191 216 255
191 216 255
191 216 255
191 216 255
191 216 255
191 216 255
191 216 255
191 216 255
191 216 255
191 216 255
191 216 255
191 216 255
191 216 255
191 216 255
191 216 255
191 216 255
191 216 255
191 216 255
191 216 255
191 216 255
191 216 255
191 216 255
191 216 255
191 216 255
191 216 255
191 216 255
191 216 255
191 216 255
191 216 255
191 216 255
191 216 255
191 216 255
191 216 255
191 216 255
191 216 255
191 216 255
191 216 255
191 216 255
191 216 255
191 216 255
191 216 255
191 216 255
191 216 255
191 216 255
191 216 255
191 216 255
191 216 255
191 216 255
191 216 255
191 216 255
191 216 255
191 216 255
191 216 255
191 216 255
191 216 255
191 216 255
191 216 255
191 216 255
191 216 255
191 216 255
191 216 255
191 216 255
191 216 255
191 216 255
191 216 255
191 216 255
191 216 255
191 216 255
191 216 255
191 216 255
191 216 255
191 216 255
191 216 255
191 216 255
191 216 255
191 216 255
191 216 255
191 216 255
191 216 255
191 216 255
191 216 255
191 216 255
191 216 255
191 216 255
191 216 255
191 216 255
191 216 255
191 216 255
191 216 255
191 216 255
191 216 255
191 216 255
191 216 255
191 216 255
191 216 255
191 216 255
191 216 255
191 216 255
191 216 255
191 216 255
191 216 255
191 216 255
191 216 255
191 216 255
191 216 255
191 216 255
191 216 255
191 216 255
191 216 255
191 216 255
191 216 255
191 216 255
191 216 255
191 216 255
191 216 255
191 216 255
191 216 255
191 216 255
191 216 255
191 216 255
191 216 255
191 216 255
191 216 255
191 216 255
191 216 255
191 216 255
191 216 255
191 216 255
191 216 255
191 216 255
191 216 255
191 216 255
191 216 255
191 216 255
191 216 255
191 216 255
191 216 255
191 216 255
191 216 255
191 216 255
191 216 255
191 216 255
191 216 255
191 216 255
191 216 255
191 216 255
191 216 255
191 216 255
191 216 255
191 216 255
191 216 255
191 216 255
191 216 255
191 216 255
191 216 255
191 216 255
191 216 255
191 216 255
191 216 255
191 216 255
191 216 255
191 216 255
191 216 255
191 216 255
191 216 255
191 216 255
191 216 255
191 216 255
191 216 255
191 216 255
191 216 255
191 216 255
191 216 255
191 216 255
191 216 255
191 216 255
191 216 255
191 216 255
191 216 255
191 216 255
191 216 255
191 216 255
191 216 255
191 216 255
191 216 255
191 216 255
191 216 255
191 216 255
191 216 255
191 216 255
191 216 255
191 216 255
191 216 255
191 216 255
191 216 255
191 216 255
191 216 255
191 216 255
191 216 255
191 216 255
191 216 255
191 216 255
191 216 255
191 216 255
191 216 255
191 216 255
191 216 255
191 216 255
191 216 255
191 216 255
191 216 255
191 216 255
191 216 255
191 216 255
191 216 255
191 216 255
191 216 255
191 216 255
191 216 255
191 216 255
191 216 255
191 216 255
191 216 255
191 216 255
191 216 255
191 216 255
191 216 255
191 216 255
191 216 255
191 216 255
191 216 255
191 216 255
191 216 255
191 216 255
191 216 255
191 216 255
191 216 255
191 216 255
191 216 255
191 216 255
191 216 255
191 216 255
191 216 255
191 216 255
191 216 255
191 216 255
191 216 255
191 216 255
191 216 255
191 216 255
191 216 255
191 216 255
191 216 255
191 216 255
191 216 255
191 216 255
191 216 255
191 216 255
191 216 255
191 216 255
191 216 255
191 216 255
191 216 255
191 216 255
191 216 255
191 216 255
191 216 255
191 216 255
191 216 255
191 216 255
191 216 255
191 216 255
191 216 255
191 216 255
191 216 255
191 216 255
191 216 255
191 216 255
191 216 255
191 216 255
191 216 255
191 216 255
191 216 255
191 216 255
191 216 255
191 216 255
191 216 255
191 216 255
191 216 255
191 216 255
191 216 255
191 216 255
191 216 255
191 216 255
191 216 255
191 216 255
191 216 255
191 216 255
191 216 255
191 216 255
191 216 255
191 216 255
191 216 255
191 216 255
191 216 255
191 216 255
191 216 255
191 216 255
191 216 255
191 216 255
191 216 255
191 216 255
191 216 255
191 216 255
191 216 255
191 216 255
191 216 255
191 216 255
191 216 255
191 216 255
191 216 255
191 216 255
191 216 255
191 216 255
191 216 255
191 216 255
191 216 255
191 216 255
191 216 255
191 216 255
191 216 255
191 216 255
191 216 255
191 216 255
191 216 255
191 216 255
191 216 255
191 216 255
191 216 255
191 216 255
191 216 255
191 216 255
191 216 255
191 216 255
191 216 255
191 216 255
191 216 255
191 216 255
191 216 255
191 216 255
191 216 255
191 216 255
191 216 255
191 216 255
191 216 255
191 216 255
191 216 255
191 216 255
191 216 255
191 216 255
191 216 255
191 216 255
191 216 255
191 216 255
191 216 255
191 216 255
191 216 255
191 216 255
191 216 255
191 216 255
191 216 255
191 216 255
191 216 255
191 216 255
191 216 255
191 216 255
191 216 255
191 216 255
191 216 255
191 216 255
191 216 255
191 216 255
191 216 255
191 216 255
191 216 255
191 216 255
191 216 255
191 216 255
191 216 255
191 216 255
191 216 255
191 216 255
191 216 255
191 216 255
191 216 255
191 216 255
191 216 255
191 216 255
191 216 255
191 216 255
191 216 255
191 216 255
191 216 255
191 216 255
191 216 255
191 216 255
191 216 255
191 216 255
191 216 255
191 216 255
191 216 255
191 216 255
191 216 255
191 216 255
191 216 255
191 216 255
191 216 255
191 216 255
191 216 255
191 216 255
191 216 255
191 216 255
191 216 255
191 216 255
191 216 255
191 216 255
191 216 255
191 216 255
191 216 255
191 216 255
191 216 255
191 216 255
191 216 255
191 216 255
191 216 255
191 216 255
191 216 255
191 216 255
191 216 255
191 216 255
191 216 255
191 216 255
191 216 255
191 216 255
191 216 255
191 216 255
191 216 255
191 216 255
191 216 255
191 216 255
191 216 255
191 216 255
191 216 255
191 216 255
191 216 255
191 216 255
191 216 255
191 216 255
191 216 255
191 216 255
191 216 255
191 216 255
191 216 255
191 216 255
191 216 255
191 216 255
191 216 255
191 216 255
191 216 255
191 216 255
191 216 255
191 216 255
191 216 255
191 216 255
191 216 255
191 216 255
191 216 255
191 216 255
191 216 255
191 216 255
191 216 255
191 216 255
191 216 255
191 216 255
191 216 255
191 216 255
191 216 255
191 216 255
191 216 255
191 216 255
191 216 255
191 216 255
191 216 255
191 216 255
191 216 255
191 216 255
191 216 255
191 216 255
191 216 255
191 216 255
191 216 255
191 216 255
191 216 255
191 216 255
191 216 255
191 216 255
191 216 255
191 216 255
191 216 255
191 216 255
191 216 255
191 216 255
191 216 255
191 216 255
191 216 255
191 216 255
191 216 255
191 216 255
191 216 255
191 216 255
191 216 255
191 216 255
191 216 255
191 216 255
191 216 255
191 216 255
191 216 255
191 216 255
191 216 255
191 216 255
191 216 255
191 216 255
191 216 255
191 216 255
191 216 255
191 216 255
191 216 255
191 216 255
191 216 255
191 216 255
191 216 255
191 216 255
191 216 255
191 216 255
191 216 255
191 216 255
191 216 255
191 216 255
191 216 255
191 216 255
191 216 255
191 216 255
191 216 255
191 216 255
191 216 255
191 216 255
191 216 255
191 216 255
191 216 255
191 216 255
191 216 255
191 216 255
191 216 255
191 216 255
191 216 255
191 216 255
191 216 255
191 216 255
191 216 255
191 216 255
191 216 255
191 216 255
191 216 255
191 216 255
191 216 255
191 216 255
191 216 255
191 216 255
191 216 255
191 216 255
191 216 255
191 216 255
191 216 255
191 216 255
191 216 255
191 216 255
191 216 255
191 216 255
191 216 255
191 216 255
191 216 255
191 216 255
191 216 255
191 216 255
191 216 255
191 216 255
191 216 255
191 216 255
191 216 255
191 216 255
191 216 255
191 216 255
191 216 255
191 216 255
191 216 255
191 216 255
191 216 255
191 216 255
191 216 255
191 216 255
191 216 255
191 216 255
191 216 255
191 216 255
191 216 255
191 216 255
191 216 255
191 216 255
